<svg width="141" height="28" viewBox="0 0 141 28" fill="none" xmlns="http://www.w3.org/2000/svg">
<path d="M32.1361 25.6536H26.1289L29.8862 2.4209H35.8931L32.1361 25.6536Z" fill="#00579F"/>
<path d="M53.9106 2.98911C52.7257 2.51903 50.8464 2 48.5226 2C42.5903 2 38.4128 5.16343 38.3872 9.68618C38.3379 13.023 41.3781 14.8764 43.652 15.989C45.9761 17.126 46.7662 17.868 46.7662 18.8814C46.7425 20.4379 44.8881 21.1553 43.1586 21.1553C40.7602 21.1553 39.4752 20.7854 37.5222 19.9195L36.7312 19.5483L35.8906 24.7635C37.2995 25.4054 39.8953 25.975 42.5903 26C48.8935 26 52.9971 22.8855 53.0457 18.0658C53.0697 15.4211 51.4643 13.3946 48.0033 11.7386C45.9022 10.6756 44.6155 9.95883 44.6155 8.87118C44.6401 7.8824 45.7038 6.86964 48.0755 6.86964C50.0285 6.82004 51.4633 7.28946 52.5503 7.75921L53.0937 8.00591L53.9106 2.98911Z" fill="#00579F"/>
<path d="M61.8958 17.4231C62.3905 16.0884 64.2942 10.9227 64.2942 10.9227C64.2692 10.9723 64.7879 9.56341 65.0845 8.69848L65.5043 10.7003C65.5043 10.7003 66.6419 16.2615 66.889 17.4231C65.9501 17.4231 63.0823 17.4231 61.8958 17.4231ZM69.311 2.4209H64.6644C63.2315 2.4209 62.1428 2.84072 61.5246 4.34852L52.6016 25.6532H58.9048C58.9048 25.6532 59.9426 22.7858 60.1656 22.1682C60.8571 22.1682 66.9888 22.1682 67.8784 22.1682C68.0509 22.9839 68.5952 25.6532 68.5952 25.6532H74.1573L69.311 2.4209Z" fill="#00579F"/>
<path d="M21.1086 2.4209L15.2256 18.2634L14.5827 15.0503C13.4951 11.3429 10.0839 7.31485 6.27734 5.31201L11.666 25.6289H18.0185L27.4608 2.4209H21.1086Z" fill="#00579F"/>
<path d="M9.76392 2.4209H0.098875L0 2.89033C7.53933 4.81827 12.5325 9.46552 14.5839 15.0513L12.4829 4.37382C12.137 2.89 11.0739 2.46985 9.76392 2.4209Z" fill="#FAA61A"/>
<path d="M123.743 2.99414H111.492V25.0045H123.743V2.99414Z" fill="#FF5A00"/>
<path d="M112.307 14C112.307 9.52815 114.41 5.55918 117.636 2.99479C115.262 1.12815 112.267 0 109 0C101.261 0 95 6.26147 95 14C95 21.7385 101.261 28 109 28C112.267 28 115.262 26.8718 117.636 25.0051C114.405 22.4769 112.307 18.4718 112.307 14Z" fill="#EB001B"/>
<path d="M140.272 14C140.272 21.7385 134.011 28 126.272 28C123.006 28 120.011 26.8718 117.637 25.0051C120.903 22.4362 122.965 18.4718 122.965 14C122.965 9.52815 120.863 5.55918 117.637 2.99479C120.006 1.12815 123.001 0 126.268 0C134.011 0 140.272 6.30227 140.272 14Z" fill="#F79E1B"/>
</svg>
