<svg width="92" height="25" viewBox="0 0 92 25" fill="none" xmlns="http://www.w3.org/2000/svg">
<path d="M16.2249 1.30588C15.0965 0.530158 13.6241 0.141357 11.8076 0.141357H4.77502C4.21815 0.141357 3.9105 0.419859 3.85206 0.976325L0.995295 18.909C0.965605 19.0851 1.00967 19.2462 1.12709 19.3927C1.24384 19.5394 1.39068 19.6123 1.56654 19.6123H4.90695C5.49284 19.6123 5.81487 19.3345 5.87398 18.7773L6.66502 13.9427C6.6939 13.7084 6.79695 13.5179 6.97281 13.3712C7.14854 13.2248 7.36833 13.129 7.63205 13.0852C7.89577 13.0417 8.14445 13.0196 8.37929 13.0196C8.61346 13.0196 8.89169 13.0345 9.21453 13.0637C9.53656 13.0928 9.74184 13.1072 9.82984 13.1072C12.3497 13.1072 14.3275 12.3972 15.7636 10.9755C17.1989 9.55467 17.9174 7.58433 17.9174 5.06371C17.9174 3.33493 17.3528 2.08241 16.2249 1.30548V1.30588ZM12.599 6.69052C12.452 7.71626 12.0716 8.38988 11.4562 8.71231C10.8408 9.03515 9.96177 9.19583 8.81914 9.19583L7.3686 9.23962L8.11597 4.53653C8.17428 4.2145 8.36465 4.05328 8.68722 4.05328H9.52259C10.6941 4.05328 11.5444 4.22216 12.0718 4.55856C12.599 4.89577 12.7749 5.6066 12.599 6.69052Z" fill="#003087"/>
<path d="M90.4415 0.140381H87.1894C86.8662 0.140381 86.6759 0.301599 86.6179 0.624167L83.7609 18.9088L83.7168 18.9967C83.7168 19.1439 83.7754 19.2825 83.8929 19.4144C84.0094 19.546 84.1566 19.612 84.3322 19.612H87.2336C87.7894 19.612 88.0972 19.3342 88.1567 18.777L91.0135 0.800027V0.756364C91.0133 0.345933 90.8223 0.14092 90.4415 0.14092V0.140381Z" fill="#009CDE"/>
<path d="M51.1491 7.21834C51.1491 7.07217 51.0902 6.93272 50.9738 6.80119C50.8562 6.6694 50.7243 6.60303 50.5781 6.60303H47.1938C46.8708 6.60303 46.6071 6.75027 46.4023 7.04248L41.7434 13.8994L39.8095 7.30647C39.6623 6.838 39.3404 6.60303 38.8426 6.60303H35.5456C35.3987 6.60303 35.267 6.66913 35.1505 6.80119C35.0329 6.93272 34.9746 7.07244 34.9746 7.21834C34.9746 7.27732 35.2604 8.14144 35.8316 9.81164C36.4029 11.4824 37.0182 13.2845 37.6775 15.2186C38.3369 17.1522 38.681 18.1784 38.7104 18.2946C36.3075 21.577 35.1065 23.335 35.1065 23.5691C35.1065 23.9504 35.2966 24.1406 35.6779 24.1406H39.0623C39.3844 24.1406 39.648 23.9944 39.8536 23.7013L51.0618 7.52586C51.1199 7.46782 51.1491 7.36572 51.1491 7.2182V7.21834Z" fill="#003087"/>
<path d="M82.6542 6.60258H79.3137C78.903 6.60258 78.6548 7.08623 78.5668 8.05339C77.804 6.88162 76.4131 6.29492 74.3908 6.29492C72.2811 6.29492 70.4861 7.08623 69.0067 8.66857C67.5267 10.2509 66.7871 12.1122 66.7871 14.251C66.7871 15.9802 67.2925 17.3572 68.3032 18.3824C69.3142 19.4087 70.6692 19.9208 72.3694 19.9208C73.219 19.9208 74.0834 19.7447 74.9624 19.3934C75.8415 19.0418 76.5294 18.5732 77.0285 17.9869C77.0285 18.0163 76.9986 18.1477 76.9407 18.382C76.8814 18.6169 76.8525 18.7933 76.8525 18.9095C76.8525 19.3789 77.0425 19.6126 77.4241 19.6126H80.4571C81.0131 19.6126 81.3358 19.3348 81.4234 18.7777L83.2258 7.30575C83.2547 7.12976 83.2109 6.96894 83.0939 6.82223C82.9761 6.67606 82.8299 6.60258 82.6542 6.60258ZM76.9184 15.2618C76.1711 15.9944 75.2699 16.3605 74.2152 16.3605C73.365 16.3605 72.677 16.1265 72.1493 15.6573C71.6216 15.1895 71.3579 14.5448 71.3579 13.7234C71.3579 12.64 71.7242 11.7235 72.4571 10.9764C73.1886 10.2291 74.0979 9.85566 75.1821 9.85566C76.0019 9.85566 76.6833 10.0974 77.2259 10.5806C77.7674 11.0642 78.0394 11.7309 78.0394 12.5809C78.0391 13.6357 77.6655 14.5296 76.9184 15.2618Z" fill="#009CDE"/>
<path d="M32.7288 6.60258H29.3883C28.9774 6.60258 28.7289 7.08623 28.6409 8.05339C27.8497 6.88162 26.4578 6.29492 24.4653 6.29492C22.3555 6.29492 20.5604 7.08623 19.0809 8.66857C17.6009 10.2509 16.8613 12.1122 16.8613 14.251C16.8613 15.9802 17.3669 17.3572 18.3778 18.3824C19.3888 19.4087 20.7437 19.9208 22.4435 19.9208C23.2635 19.9208 24.1138 19.7447 24.9927 19.3934C25.8717 19.0418 26.575 18.5732 27.1025 17.9869C26.9849 18.3382 26.9266 18.646 26.9266 18.9095C26.9266 19.3789 27.117 19.6126 27.498 19.6126H30.5308C31.0871 19.6126 31.4098 19.3348 31.4978 18.7777L33.2998 7.30575C33.3287 7.12976 33.2849 6.96894 33.168 6.82223C33.0507 6.67606 32.9044 6.60258 32.7288 6.60258ZM26.9929 15.2836C26.2455 16.0023 25.3294 16.3605 24.2459 16.3605C23.3956 16.3605 22.7143 16.1265 22.2019 15.6573C21.6888 15.1895 21.4326 14.5448 21.4326 13.7234C21.4326 12.64 21.7987 11.7235 22.5316 10.9764C23.2636 10.2291 24.1721 9.85553 25.2567 9.85553C26.0767 9.85553 26.758 10.0974 27.3007 10.5806C27.8423 11.0642 28.1137 11.7309 28.1137 12.5809C28.1136 13.6651 27.7401 14.5664 26.9929 15.2836Z" fill="#003087"/>
<path d="M66.1509 1.30588C65.0227 0.530158 63.5507 0.141357 61.7337 0.141357H54.745C54.1588 0.141357 53.8363 0.419859 53.7781 0.976325L50.9211 18.909C50.8914 19.0851 50.9355 19.2462 51.053 19.3927C51.1692 19.5394 51.3165 19.6123 51.4923 19.6123H55.0963C55.4479 19.6123 55.6822 19.4221 55.7998 19.0411L56.5909 13.9427C56.6201 13.7084 56.7226 13.5179 56.8987 13.3712C57.0746 13.2248 57.2941 13.129 57.5581 13.0852C57.8216 13.0417 58.0702 13.0196 58.3052 13.0196C58.5395 13.0196 58.8176 13.0345 59.1402 13.0637C59.4623 13.0928 59.6682 13.1072 59.7555 13.1072C62.2758 13.1072 64.2533 12.3972 65.6893 10.9755C67.1252 9.55467 67.8431 7.58433 67.8431 5.06371C67.8432 3.33493 67.2788 2.08227 66.1509 1.30548V1.30588ZM61.6459 8.53632C61.0012 8.97577 60.034 9.19542 58.7451 9.19542L57.3383 9.23949L58.0855 4.53626C58.1436 4.21436 58.3341 4.05288 58.6568 4.05288H59.4477C60.0924 4.05288 60.6051 4.0823 60.9866 4.14074C61.3668 4.19959 61.7337 4.38243 62.0853 4.68995C62.4372 4.99774 62.6128 5.44485 62.6128 6.0306C62.6128 7.26176 62.2901 8.09646 61.6459 8.53632Z" fill="#009CDE"/>
</svg>
