<svg width="167" height="44" viewBox="0 0 167 44" fill="none" xmlns="http://www.w3.org/2000/svg">
<path d="M15.9811 26.9121L17.9532 22.8709H17.5079L16.4688 20.7981H15.6418V17.9065C12.2489 16.9137 8.58032 16.6349 6.01445 16.5479V34.7505C11.8672 34.7854 17.7835 35.935 21.961 40.9516C21.9186 39.8194 21.8974 38.4433 21.8762 36.9627H20.9856L15.9811 26.9121ZM4.63609 35.8305V20.2058C4.02113 20.2232 1.34923 20.2232 0.522217 20.2232V40.2201C7.64728 39.5581 15.6842 39.5756 21.6642 43.7735C18.9286 37.3285 11.8036 35.7608 4.63609 35.8305ZM39.392 34.9596V16.7569C36.8261 16.844 33.1576 17.1227 29.7647 18.1155V20.7806H28.9377L27.8986 22.8535H27.4533L29.4254 26.8946L24.4421 36.9105H23.5514C23.5302 38.4956 23.509 39.9588 23.4666 41.1433C27.6229 36.1615 33.5393 35.0118 39.392 34.9596ZM44.8842 20.4497C44.0572 20.4671 41.3853 20.4671 40.7704 20.4323V36.057C33.5817 35.9873 26.4778 37.555 23.7423 43.9999C29.7223 39.802 37.7592 39.802 44.8842 40.4465V20.4497Z" fill="#5F3EED"/>
<path d="M35.977 13.5693L35.9346 7.75139L39.7728 6.2882L22.6599 0L5.65308 6.47982L13.4567 9.35393L13.4991 14.1789H31.9904L32.0116 9.2494L35.4469 7.94299L35.4893 13.5867C35.2348 13.6738 35.0652 13.8654 35.0652 14.1093C35.0652 14.4228 35.362 14.6667 35.7437 14.6667C36.1254 14.6667 36.4223 14.4228 36.4223 14.1093C36.4223 13.848 36.2315 13.639 35.977 13.5693ZM16.68 15.2589H28.7035V19.9272H28.2158L27.1767 22H25.8832L28.2582 26.9121L23.699 36.057H23.1477V28.5495C23.6778 28.3927 24.0807 27.9747 24.0807 27.4695C24.0807 26.8425 23.4657 26.3373 22.7023 26.3373C21.9389 26.3373 21.324 26.8425 21.324 27.4695C21.324 27.9573 21.7057 28.3927 22.257 28.5495V36.057H21.7057L17.1465 26.9121L19.5215 22H18.228L17.1889 19.9272H16.7012V15.2589H16.68Z" fill="#F4B826"/>
<path d="M62.3736 32.5V11.1747H75.3976V14.9293H64.9842L66.4216 13.6093V20.62L64.9842 19.6667H74.4882V23.392H65.3362L66.4216 22.38V30.0507L64.9842 28.716H75.6029V32.5H62.3736ZM83.777 32.6907C82.4668 32.6907 81.3522 32.3436 80.433 31.6493C79.5237 30.9453 78.8344 29.9724 78.365 28.7307C77.8957 27.4889 77.661 26.0516 77.661 24.4187C77.661 22.6489 77.9446 21.1529 78.5117 19.9307C79.0788 18.7084 79.8415 17.7796 80.7997 17.144C81.7579 16.5084 82.8237 16.1907 83.997 16.1907C84.9162 16.1907 85.6739 16.3471 86.2704 16.66C86.8668 16.9631 87.3264 17.3493 87.649 17.8187C87.9717 18.288 88.1819 18.7524 88.2797 19.212L89.0424 20.0627L88.089 21.2067C88.001 20.8938 87.8397 20.6151 87.605 20.3707C87.3802 20.1164 87.0722 19.916 86.681 19.7693C86.2997 19.6227 85.8206 19.5493 85.2437 19.5493C84.1779 19.5493 83.3273 19.9453 82.6917 20.7373C82.0562 21.5293 81.7384 22.7809 81.7384 24.492C81.7384 26.076 82.0366 27.2884 82.633 28.1293C83.2295 28.9604 84.0508 29.376 85.097 29.376C85.6935 29.376 86.2019 29.2831 86.6224 29.0973C87.0526 28.9018 87.3899 28.6769 87.6344 28.4227C87.8886 28.1587 88.0402 27.924 88.089 27.7187L88.265 28.056L88.089 28.8187C88.001 29.2684 87.8593 29.7231 87.6637 30.1827C87.4682 30.6422 87.2042 31.0627 86.8717 31.444C86.5393 31.8156 86.1188 32.1187 85.6104 32.3533C85.1117 32.5782 84.5006 32.6907 83.777 32.6907ZM88.1037 32.5L88.089 9.67866H92.1224V32.5H88.1037ZM100.703 32.8227C99.2851 32.8227 98.1655 32.3436 97.3442 31.3853C96.5228 30.4173 96.1122 28.9898 96.1122 27.1027V16.484H100.175V25.856C100.175 26.7458 100.258 27.4498 100.424 27.968C100.59 28.4764 100.84 28.8382 101.172 29.0533C101.514 29.2684 101.935 29.376 102.434 29.376C103.098 29.376 103.7 29.1707 104.238 28.76C104.785 28.3493 105.181 27.8751 105.426 27.3373V16.484H109.474V32.5H105.939L105.543 26.4573L105.748 27.6747C105.631 28.5547 105.396 29.3858 105.044 30.168C104.702 30.9502 104.184 31.5907 103.49 32.0893C102.795 32.5782 101.866 32.8227 100.703 32.8227ZM113.736 32.5V11.1747H117.857V31.0627L115.525 28.672H126.1V32.5H113.736ZM133.004 32.676C132.066 32.676 131.22 32.5 130.467 32.148C129.724 31.796 129.137 31.2876 128.707 30.6227C128.287 29.9578 128.076 29.1707 128.076 28.2613C128.076 27.3031 128.262 26.516 128.634 25.9C129.005 25.2742 129.523 24.7804 130.188 24.4187C130.853 24.0471 131.621 23.7733 132.491 23.5973C133.097 23.4702 133.723 23.3676 134.368 23.2893C135.023 23.2013 135.635 23.1329 136.202 23.084C136.769 23.0351 137.228 22.996 137.58 22.9667V22.424C137.58 21.3778 137.39 20.62 137.008 20.1507C136.627 19.6716 135.972 19.432 135.043 19.432C134.447 19.432 133.943 19.5102 133.532 19.6667C133.131 19.8231 132.828 20.1067 132.623 20.5173C132.418 20.928 132.315 21.5196 132.315 22.292H128.531C128.423 20.8938 128.634 19.7449 129.162 18.8453C129.699 17.9458 130.487 17.2809 131.523 16.8507C132.569 16.4107 133.796 16.1907 135.204 16.1907C136.035 16.1907 136.827 16.2836 137.58 16.4693C138.343 16.6453 139.018 16.9533 139.604 17.3933C140.201 17.8236 140.67 18.4151 141.012 19.168C141.364 19.9209 141.54 20.8742 141.54 22.028V32.5H137.551L137.58 28.8333C137.404 29.9089 136.955 30.8182 136.231 31.5613C135.507 32.3044 134.432 32.676 133.004 32.676ZM134.236 29.8453C134.735 29.8453 135.219 29.7573 135.688 29.5813C136.167 29.3956 136.578 29.1413 136.92 28.8187C137.272 28.496 137.492 28.1244 137.58 27.704V24.9907C137.189 25.0493 136.764 25.1178 136.304 25.196C135.845 25.2742 135.444 25.3524 135.102 25.4307C134.065 25.6458 133.337 25.944 132.916 26.3253C132.506 26.6969 132.3 27.22 132.3 27.8947C132.3 28.2956 132.379 28.6427 132.535 28.936C132.701 29.2293 132.931 29.4542 133.224 29.6107C133.527 29.7671 133.865 29.8453 134.236 29.8453ZM153.67 32.6907C152.761 32.6907 151.998 32.5342 151.382 32.2213C150.776 31.9084 150.307 31.5222 149.974 31.0627C149.652 30.5933 149.441 30.1289 149.344 29.6693L148.742 28.4667L149.534 27.836C149.622 28.1489 149.784 28.4324 150.018 28.6867C150.253 28.9311 150.571 29.1267 150.972 29.2733C151.373 29.4102 151.857 29.4787 152.424 29.4787C153.45 29.4787 154.272 29.0827 154.888 28.2907C155.513 27.4889 155.826 26.2129 155.826 24.4627C155.826 22.8396 155.528 21.6222 154.932 20.8107C154.345 19.9893 153.548 19.5787 152.541 19.5787C151.945 19.5787 151.431 19.6618 151.001 19.828C150.571 19.9942 150.233 20.1947 149.989 20.4293C149.745 20.6542 149.593 20.8742 149.534 21.0893L149.329 20.928L149.549 20.1507C149.666 19.3489 149.901 18.6498 150.253 18.0533C150.605 17.4569 151.089 16.9973 151.705 16.6747C152.321 16.352 153.074 16.1907 153.964 16.1907C155.235 16.1907 156.31 16.5329 157.19 17.2173C158.07 17.892 158.74 18.8404 159.2 20.0627C159.669 21.2751 159.904 22.688 159.904 24.3013C159.904 25.6702 159.742 26.8778 159.42 27.924C159.097 28.9604 158.647 29.8356 158.07 30.5493C157.503 31.2533 156.843 31.7862 156.09 32.148C155.337 32.5098 154.531 32.6907 153.67 32.6907ZM145.516 32.5V9.67866H149.549V17.2907V28.364L149.769 29.0533L149.446 29.8893L149.27 32.5H145.516Z" fill="#111827"/>
</svg>
