<svg width="167" height="45" viewBox="0 0 167 45" fill="none" xmlns="http://www.w3.org/2000/svg">
<path d="M15.9811 27.7778L17.9532 23.7366H17.5079L16.4688 21.6638H15.6418V18.7723C12.2489 17.7794 8.58032 17.5007 6.01445 17.4136V35.6163C11.8672 35.6511 17.7835 36.8007 21.961 41.8174C21.9186 40.6851 21.8974 39.3091 21.8762 37.8285H20.9856L15.9811 27.7778ZM4.63609 36.6962V21.0715C4.02113 21.089 1.34923 21.0889 0.522217 21.0889V41.0858C7.64728 40.4239 15.6842 40.4413 21.6642 44.6392C18.9286 38.1943 11.8036 36.6266 4.63609 36.6962ZM39.392 35.8253V17.6226C36.8261 17.7097 33.1576 17.9884 29.7647 18.9813V21.6464H28.9377L27.8986 23.7192H27.4533L29.4254 27.7604L24.4421 37.7762H23.5514C23.5302 39.3613 23.509 40.8245 23.4666 42.009C27.6229 37.0272 33.5393 35.8776 39.392 35.8253ZM44.8842 21.3154C44.0572 21.3328 41.3853 21.3328 40.7704 21.298V36.9227C33.5817 36.853 26.4778 38.4207 23.7423 44.8657C29.7223 40.6677 37.7592 40.6677 44.8842 41.3122V21.3154Z" fill="#5F3EED"/>
<path d="M35.977 14.435L35.9346 8.61711L39.7728 7.15392L22.6599 0.865723L5.65308 7.34555L13.4567 10.2197L13.4991 15.0447H31.9904L32.0116 10.1151L35.4469 8.80871L35.4893 14.4524C35.2348 14.5395 35.0652 14.7311 35.0652 14.975C35.0652 15.2885 35.362 15.5324 35.7437 15.5324C36.1254 15.5324 36.4223 15.2885 36.4223 14.975C36.4223 14.7137 36.2315 14.5047 35.977 14.435ZM16.68 16.1246H28.7035V20.7929H28.2158L27.1767 22.8657H25.8832L28.2582 27.7778L23.699 36.9227H23.1477V29.4152C23.6778 29.2584 24.0807 28.8404 24.0807 28.3353C24.0807 27.7082 23.4657 27.203 22.7023 27.203C21.9389 27.203 21.324 27.7082 21.324 28.3353C21.324 28.823 21.7057 29.2584 22.257 29.4152V36.9227H21.7057L17.1465 27.7778L19.5215 22.8657H18.228L17.1889 20.7929H16.7012V16.1246H16.68Z" fill="#F4B826"/>
<path d="M62.3736 33.3657V12.0404H75.3976V15.7951H64.9842L66.4216 14.4751V21.4857L64.9842 20.5324H74.4882V24.2577H65.3362L66.4216 23.2457V30.9164L64.9842 29.5817H75.6029V33.3657H62.3736ZM83.777 33.5564C82.4668 33.5564 81.3522 33.2093 80.433 32.5151C79.5237 31.8111 78.8344 30.8382 78.365 29.5964C77.8957 28.3546 77.661 26.9173 77.661 25.2844C77.661 23.5146 77.9446 22.0186 78.5117 20.7964C79.0788 19.5742 79.8415 18.6453 80.7997 18.0097C81.7579 17.3742 82.8237 17.0564 83.997 17.0564C84.9162 17.0564 85.6739 17.2128 86.2704 17.5257C86.8668 17.8288 87.3264 18.2151 87.649 18.6844C87.9717 19.1537 88.1819 19.6182 88.2797 20.0777L89.0424 20.9284L88.089 22.0724C88.001 21.7595 87.8397 21.4808 87.605 21.2364C87.3802 20.9822 87.0722 20.7817 86.681 20.6351C86.2997 20.4884 85.8206 20.4151 85.2437 20.4151C84.1779 20.4151 83.3273 20.8111 82.6917 21.6031C82.0562 22.3951 81.7384 23.6466 81.7384 25.3577C81.7384 26.9417 82.0366 28.1542 82.633 28.9951C83.2295 29.8262 84.0508 30.2417 85.097 30.2417C85.6935 30.2417 86.2019 30.1488 86.6224 29.9631C87.0526 29.7675 87.3899 29.5426 87.6344 29.2884C87.8886 29.0244 88.0402 28.7897 88.089 28.5844L88.265 28.9217L88.089 29.6844C88.001 30.1342 87.8593 30.5888 87.6637 31.0484C87.4682 31.5079 87.2042 31.9284 86.8717 32.3097C86.5393 32.6813 86.1188 32.9844 85.6104 33.2191C85.1117 33.4439 84.5006 33.5564 83.777 33.5564ZM88.1037 33.3657L88.089 10.5444H92.1224V33.3657H88.1037ZM100.703 33.6884C99.2851 33.6884 98.1655 33.2093 97.3442 32.2511C96.5228 31.2831 96.1122 29.8555 96.1122 27.9684V17.3497H100.175V26.7217C100.175 27.6115 100.258 28.3155 100.424 28.8337C100.59 29.3422 100.84 29.7039 101.172 29.9191C101.514 30.1342 101.935 30.2417 102.434 30.2417C103.098 30.2417 103.7 30.0364 104.238 29.6257C104.785 29.2151 105.181 28.7408 105.426 28.2031V17.3497H109.474V33.3657H105.939L105.543 27.3231L105.748 28.5404C105.631 29.4204 105.396 30.2515 105.044 31.0337C104.702 31.8159 104.184 32.4564 103.49 32.9551C102.795 33.4439 101.866 33.6884 100.703 33.6884ZM113.736 33.3657V12.0404H117.857V31.9284L115.525 29.5377H126.1V33.3657H113.736ZM133.004 33.5417C132.066 33.5417 131.22 33.3657 130.467 33.0137C129.724 32.6617 129.137 32.1533 128.707 31.4884C128.287 30.8235 128.076 30.0364 128.076 29.1271C128.076 28.1688 128.262 27.3817 128.634 26.7657C129.005 26.1399 129.523 25.6462 130.188 25.2844C130.853 24.9128 131.621 24.6391 132.491 24.4631C133.097 24.3359 133.723 24.2333 134.368 24.1551C135.023 24.0671 135.635 23.9986 136.202 23.9497C136.769 23.9008 137.228 23.8617 137.58 23.8324V23.2897C137.58 22.2435 137.39 21.4857 137.008 21.0164C136.627 20.5373 135.972 20.2977 135.043 20.2977C134.447 20.2977 133.943 20.3759 133.532 20.5324C133.131 20.6888 132.828 20.9724 132.623 21.3831C132.418 21.7937 132.315 22.3853 132.315 23.1577H128.531C128.423 21.7595 128.634 20.6106 129.162 19.7111C129.699 18.8115 130.487 18.1466 131.523 17.7164C132.569 17.2764 133.796 17.0564 135.204 17.0564C136.035 17.0564 136.827 17.1493 137.58 17.3351C138.343 17.5111 139.018 17.8191 139.604 18.2591C140.201 18.6893 140.67 19.2808 141.012 20.0337C141.364 20.7866 141.54 21.7399 141.54 22.8937V33.3657H137.551L137.58 29.6991C137.404 30.7746 136.955 31.6839 136.231 32.4271C135.507 33.1702 134.432 33.5417 133.004 33.5417ZM134.236 30.7111C134.735 30.7111 135.219 30.6231 135.688 30.4471C136.167 30.2613 136.578 30.0071 136.92 29.6844C137.272 29.3617 137.492 28.9902 137.58 28.5697V25.8564C137.189 25.9151 136.764 25.9835 136.304 26.0617C135.845 26.1399 135.444 26.2182 135.102 26.2964C134.065 26.5115 133.337 26.8097 132.916 27.1911C132.506 27.5626 132.3 28.0857 132.3 28.7604C132.3 29.1613 132.379 29.5084 132.535 29.8017C132.701 30.0951 132.931 30.3199 133.224 30.4764C133.527 30.6328 133.865 30.7111 134.236 30.7111ZM153.67 33.5564C152.761 33.5564 151.998 33.3999 151.382 33.0871C150.776 32.7742 150.307 32.3879 149.974 31.9284C149.652 31.4591 149.441 30.9946 149.344 30.5351L148.742 29.3324L149.534 28.7017C149.622 29.0146 149.784 29.2982 150.018 29.5524C150.253 29.7968 150.571 29.9924 150.972 30.1391C151.373 30.2759 151.857 30.3444 152.424 30.3444C153.45 30.3444 154.272 29.9484 154.888 29.1564C155.513 28.3546 155.826 27.0786 155.826 25.3284C155.826 23.7053 155.528 22.4879 154.932 21.6764C154.345 20.8551 153.548 20.4444 152.541 20.4444C151.945 20.4444 151.431 20.5275 151.001 20.6937C150.571 20.8599 150.233 21.0604 149.989 21.2951C149.745 21.5199 149.593 21.7399 149.534 21.9551L149.329 21.7937L149.549 21.0164C149.666 20.2146 149.901 19.5155 150.253 18.9191C150.605 18.3226 151.089 17.8631 151.705 17.5404C152.321 17.2177 153.074 17.0564 153.964 17.0564C155.235 17.0564 156.31 17.3986 157.19 18.0831C158.07 18.7577 158.74 19.7062 159.2 20.9284C159.669 22.1408 159.904 23.5537 159.904 25.1671C159.904 26.5359 159.742 27.7435 159.42 28.7897C159.097 29.8262 158.647 30.7013 158.07 31.4151C157.503 32.1191 156.843 32.6519 156.09 33.0137C155.337 33.3755 154.531 33.5564 153.67 33.5564ZM145.516 33.3657V10.5444H149.549V18.1564V29.2297L149.769 29.9191L149.446 30.7551L149.27 33.3657H145.516Z" fill="#111827"/>
</svg>
