<svg width="45" height="44" viewBox="0 0 45 44" fill="none" xmlns="http://www.w3.org/2000/svg">
<path d="M15.4591 26.9121L17.4312 22.8709H16.9859L15.9468 20.7981H15.1198V17.9065C11.7269 16.9137 8.05835 16.6349 5.49248 16.5479V34.7505C11.3452 34.7854 17.2616 35.935 21.4391 40.9516C21.3966 39.8194 21.3754 38.4434 21.3542 36.9627H20.4636L15.4591 26.9121ZM4.11412 35.8305V20.2058C3.49916 20.2232 0.827261 20.2232 0.000244141 20.2232V40.2201C7.12531 39.5581 15.1622 39.5756 21.1422 43.7735C18.4067 37.3285 11.2816 35.7608 4.11412 35.8305ZM38.87 34.9596V16.7569C36.3041 16.844 32.6356 17.1227 29.2427 18.1155V20.7806H28.4157L27.3766 22.8535H26.9313L28.9034 26.8946L23.9201 36.9105H23.0295C23.0083 38.4956 22.9871 39.9588 22.9447 41.1433C27.1009 36.1615 33.0173 35.0118 38.87 34.9596ZM44.3622 20.4497C43.5352 20.4671 40.8633 20.4671 40.2484 20.4323V36.057C33.0597 35.9873 25.9558 37.555 23.2203 43.9999C29.2003 39.802 37.2372 39.802 44.3622 40.4465V20.4497Z" fill="#5F3EED"/>
<path d="M35.455 13.5693L35.4126 7.75139L39.2508 6.2882L22.1379 0L5.1311 6.47982L12.9347 9.35393L12.9772 14.1789H31.4684L31.4896 9.2494L34.9249 7.94299L34.9673 13.5867C34.7128 13.6738 34.5432 13.8654 34.5432 14.1093C34.5432 14.4228 34.8401 14.6667 35.2218 14.6667C35.6035 14.6667 35.9004 14.4228 35.9004 14.1093C35.9004 13.848 35.7095 13.639 35.455 13.5693ZM16.158 15.2589H28.1815V19.9272H27.6938L26.6547 22H25.3612L27.7362 26.9121L23.177 36.057H22.6257V28.5495C23.1558 28.3927 23.5587 27.9747 23.5587 27.4695C23.5587 26.8425 22.9438 26.3373 22.1804 26.3373C21.417 26.3373 20.802 26.8425 20.802 27.4695C20.802 27.9573 21.1837 28.3927 21.735 28.5495V36.057H21.1837L16.6245 26.9121L18.9995 22H17.706L16.6669 19.9272H16.1792V15.2589H16.158Z" fill="#F4B826"/>
</svg>
