<svg width="167" height="44" viewBox="0 0 167 44" fill="none" xmlns="http://www.w3.org/2000/svg">
<path d="M15.4591 26.9121L17.4312 22.8709H16.9859L15.9468 20.7981H15.1198V17.9065C11.7269 16.9137 8.05835 16.6349 5.49248 16.5479V34.7505C11.3452 34.7854 17.2616 35.935 21.4391 40.9516C21.3966 39.8194 21.3754 38.4433 21.3542 36.9627H20.4636L15.4591 26.9121ZM4.11412 35.8305V20.2058C3.49916 20.2232 0.827261 20.2232 0.000244141 20.2232V40.2201C7.12531 39.5581 15.1622 39.5756 21.1422 43.7735C18.4067 37.3285 11.2816 35.7608 4.11412 35.8305ZM38.87 34.9596V16.7569C36.3041 16.844 32.6356 17.1227 29.2427 18.1155V20.7806H28.4157L27.3766 22.8535H26.9313L28.9034 26.8946L23.9201 36.9105H23.0295C23.0083 38.4956 22.9871 39.9588 22.9447 41.1433C27.1009 36.1615 33.0173 35.0118 38.87 34.9596ZM44.3622 20.4497C43.5352 20.4671 40.8633 20.4671 40.2484 20.4323V36.057C33.0597 35.9873 25.9558 37.555 23.2203 43.9999C29.2003 39.802 37.2372 39.802 44.3622 40.4465V20.4497Z" fill="#00A264"/>
<path d="M35.4552 13.5693L35.4128 7.75139L39.251 6.2882L22.1381 0L5.13123 6.47982L12.9349 9.35393L12.9773 14.1789H31.4685L31.4897 9.2494L34.925 7.94299L34.9674 13.5867C34.713 13.6738 34.5433 13.8654 34.5433 14.1093C34.5433 14.4228 34.8402 14.6667 35.2219 14.6667C35.6036 14.6667 35.9005 14.4228 35.9005 14.1093C35.9005 13.848 35.7096 13.639 35.4552 13.5693ZM16.1581 15.2589H28.1817V19.9272H27.6939L26.6549 22H25.3613L27.7363 26.9121L23.1771 36.057H22.6258V28.5495C23.1559 28.3927 23.5588 27.9747 23.5588 27.4695C23.5588 26.8425 22.9439 26.3373 22.1805 26.3373C21.4171 26.3373 20.8021 26.8425 20.8021 27.4695C20.8021 27.9573 21.1838 28.3927 21.7352 28.5495V36.057H21.1838L16.6246 26.9121L18.9997 22H17.7061L16.667 19.9272H16.1793V15.2589H16.1581Z" fill="#F4B826"/>
<path d="M61.8517 32.5V11.1747H74.8757V14.9293H64.4624L65.8997 13.6093V20.62L64.4624 19.6667H73.9664V23.392H64.8144L65.8997 22.38V30.0507L64.4624 28.716H75.081V32.5H61.8517ZM83.2552 32.6907C81.945 32.6907 80.8303 32.3436 79.9112 31.6493C79.0019 30.9453 78.3125 29.9724 77.8432 28.7307C77.3739 27.4889 77.1392 26.0516 77.1392 24.4187C77.1392 22.6489 77.4228 21.1529 77.9899 19.9307C78.557 18.7084 79.3196 17.7796 80.2779 17.144C81.2361 16.5084 82.3019 16.1907 83.4752 16.1907C84.3943 16.1907 85.1521 16.3471 85.7485 16.66C86.345 16.9631 86.8045 17.3493 87.1272 17.8187C87.4499 18.288 87.6601 18.7524 87.7579 19.212L88.5205 20.0627L87.5672 21.2067C87.4792 20.8938 87.3179 20.6151 87.0832 20.3707C86.8583 20.1164 86.5503 19.916 86.1592 19.7693C85.7779 19.6227 85.2988 19.5493 84.7219 19.5493C83.6561 19.5493 82.8054 19.9453 82.1699 20.7373C81.5343 21.5293 81.2165 22.7809 81.2165 24.492C81.2165 26.076 81.5148 27.2884 82.1112 28.1293C82.7076 28.9604 83.529 29.376 84.5752 29.376C85.1716 29.376 85.6801 29.2831 86.1005 29.0973C86.5308 28.9018 86.8681 28.6769 87.1125 28.4227C87.3668 28.1587 87.5183 27.924 87.5672 27.7187L87.7432 28.056L87.5672 28.8187C87.4792 29.2684 87.3374 29.7231 87.1419 30.1827C86.9463 30.6422 86.6823 31.0627 86.3499 31.444C86.0174 31.8156 85.597 32.1187 85.0885 32.3533C84.5899 32.5782 83.9788 32.6907 83.2552 32.6907ZM87.5819 32.5L87.5672 9.67866H91.6005V32.5H87.5819ZM100.181 32.8227C98.7632 32.8227 97.6437 32.3436 96.8223 31.3853C96.001 30.4173 95.5903 28.9898 95.5903 27.1027V16.484H99.653V25.856C99.653 26.7458 99.7361 27.4498 99.9023 27.968C100.069 28.4764 100.318 28.8382 100.65 29.0533C100.993 29.2684 101.413 29.376 101.912 29.376C102.577 29.376 103.178 29.1707 103.716 28.76C104.263 28.3493 104.659 27.8751 104.904 27.3373V16.484H108.952V32.5H105.417L105.021 26.4573L105.226 27.6747C105.109 28.5547 104.874 29.3858 104.522 30.168C104.18 30.9502 103.662 31.5907 102.968 32.0893C102.273 32.5782 101.345 32.8227 100.181 32.8227ZM113.214 32.5V11.1747H117.335V31.0627L115.003 28.672H125.578V32.5H113.214ZM132.482 32.676C131.544 32.676 130.698 32.5 129.945 32.148C129.202 31.796 128.615 31.2876 128.185 30.6227C127.765 29.9578 127.554 29.1707 127.554 28.2613C127.554 27.3031 127.74 26.516 128.112 25.9C128.483 25.2742 129.002 24.7804 129.666 24.4187C130.331 24.0471 131.099 23.7733 131.969 23.5973C132.575 23.4702 133.201 23.3676 133.846 23.2893C134.502 23.2013 135.113 23.1329 135.68 23.084C136.247 23.0351 136.706 22.996 137.058 22.9667V22.424C137.058 21.3778 136.868 20.62 136.486 20.1507C136.105 19.6716 135.45 19.432 134.521 19.432C133.925 19.432 133.421 19.5102 133.01 19.6667C132.61 19.8231 132.306 20.1067 132.101 20.5173C131.896 20.928 131.793 21.5196 131.793 22.292H128.009C127.902 20.8938 128.112 19.7449 128.64 18.8453C129.178 17.9458 129.965 17.2809 131.001 16.8507C132.047 16.4107 133.274 16.1907 134.682 16.1907C135.514 16.1907 136.306 16.2836 137.058 16.4693C137.821 16.6453 138.496 16.9533 139.082 17.3933C139.679 17.8236 140.148 18.4151 140.49 19.168C140.842 19.9209 141.018 20.8742 141.018 22.028V32.5H137.029L137.058 28.8333C136.882 29.9089 136.433 30.8182 135.709 31.5613C134.986 32.3044 133.91 32.676 132.482 32.676ZM133.714 29.8453C134.213 29.8453 134.697 29.7573 135.166 29.5813C135.646 29.3956 136.056 29.1413 136.398 28.8187C136.75 28.496 136.97 28.1244 137.058 27.704V24.9907C136.667 25.0493 136.242 25.1178 135.782 25.196C135.323 25.2742 134.922 25.3524 134.58 25.4307C133.543 25.6458 132.815 25.944 132.394 26.3253C131.984 26.6969 131.778 27.22 131.778 27.8947C131.778 28.2956 131.857 28.6427 132.013 28.936C132.179 29.2293 132.409 29.4542 132.702 29.6107C133.006 29.7671 133.343 29.8453 133.714 29.8453ZM153.149 32.6907C152.239 32.6907 151.477 32.5342 150.861 32.2213C150.254 31.9084 149.785 31.5222 149.453 31.0627C149.13 30.5933 148.92 30.1289 148.822 29.6693L148.221 28.4667L149.013 27.836C149.101 28.1489 149.262 28.4324 149.497 28.6867C149.731 28.9311 150.049 29.1267 150.45 29.2733C150.851 29.4102 151.335 29.4787 151.902 29.4787C152.929 29.4787 153.75 29.0827 154.366 28.2907C154.992 27.4889 155.305 26.2129 155.305 24.4627C155.305 22.8396 155.006 21.6222 154.41 20.8107C153.823 19.9893 153.026 19.5787 152.019 19.5787C151.423 19.5787 150.909 19.6618 150.479 19.828C150.049 19.9942 149.712 20.1947 149.467 20.4293C149.223 20.6542 149.071 20.8742 149.013 21.0893L148.807 20.928L149.027 20.1507C149.145 19.3489 149.379 18.6498 149.731 18.0533C150.083 17.4569 150.567 16.9973 151.183 16.6747C151.799 16.352 152.552 16.1907 153.442 16.1907C154.713 16.1907 155.789 16.5329 156.669 17.2173C157.549 17.892 158.218 18.8404 158.678 20.0627C159.147 21.2751 159.382 22.688 159.382 24.3013C159.382 25.6702 159.221 26.8778 158.898 27.924C158.575 28.9604 158.125 29.8356 157.549 30.5493C156.981 31.2533 156.321 31.7862 155.569 32.148C154.816 32.5098 154.009 32.6907 153.149 32.6907ZM144.994 32.5V9.67866H149.027V17.2907V28.364L149.247 29.0533L148.925 29.8893L148.749 32.5H144.994Z" fill="#111827"/>
</svg>
