<svg width="161" height="45" viewBox="0 0 161 45" fill="none" xmlns="http://www.w3.org/2000/svg">
<path d="M15.4591 27.5527L17.4312 23.5115H16.9859L15.9468 21.4387H15.1198V18.5472C11.7269 17.5543 8.05835 17.2756 5.49248 17.1885V35.3912C11.3452 35.426 17.2616 36.5756 21.4391 41.5923C21.3966 40.46 21.3754 39.084 21.3542 37.6034H20.4636L15.4591 27.5527ZM4.11412 36.4711V20.8464C3.49916 20.8639 0.827261 20.8638 0.000244141 20.8638V40.8607C7.12531 40.1988 15.1622 40.2162 21.1422 44.4141C18.4067 37.9692 11.2816 36.4015 4.11412 36.4711ZM38.87 35.6002V17.3975C36.3041 17.4846 32.6356 17.7633 29.2427 18.7562V21.4213H28.4157L27.3766 23.4941H26.9313L28.9034 27.5353L23.9201 37.5511H23.0295C23.0083 39.1362 22.9871 40.5994 22.9447 41.7839C27.1009 36.8021 33.0173 35.6525 38.87 35.6002ZM44.3622 21.0903C43.5352 21.1077 40.8633 21.1077 40.2484 21.0729V36.6976C33.0597 36.6279 25.9558 38.1956 23.2203 44.6406C29.2003 40.4426 37.2372 40.4426 44.3622 41.0871V21.0903Z" fill="#5F3EED"/>
<path d="M35.455 14.2099L35.4126 8.39201L39.2508 6.92882L22.1379 0.640625L5.1311 7.12045L12.9347 9.99456L12.9772 14.8196H31.4684L31.4896 9.89003L34.9249 8.58361L34.9673 14.2273C34.7128 14.3144 34.5432 14.506 34.5432 14.7499C34.5432 15.0634 34.8401 15.3073 35.2218 15.3073C35.6035 15.3073 35.9004 15.0634 35.9004 14.7499C35.9004 14.4886 35.7095 14.2796 35.455 14.2099ZM16.158 15.8995H28.1815V20.5678H27.6938L26.6547 22.6406H25.3612L27.7362 27.5527L23.177 36.6976H22.6257V29.1901C23.1558 29.0333 23.5587 28.6153 23.5587 28.1102C23.5587 27.4831 22.9438 26.9779 22.1804 26.9779C21.417 26.9779 20.802 27.4831 20.802 28.1102C20.802 28.5979 21.1837 29.0333 21.735 29.1901V36.6976H21.1837L16.6245 27.5527L18.9995 22.6406H17.706L16.6669 20.5678H16.1792V15.8995H16.158Z" fill="#F4B826"/>
<path d="M61.8516 33.1406V11.8153H74.8756V15.57H64.4623L65.8996 14.25V21.2606L64.4623 20.3073H73.9663V24.0326H64.8143L65.8996 23.0206V30.6913L64.4623 29.3566H75.0809V33.1406H61.8516ZM83.2551 33.3313C81.9449 33.3313 80.8302 32.9842 79.9111 32.29C79.0017 31.586 78.3124 30.6131 77.8431 29.3713C77.3737 28.1295 77.1391 26.6922 77.1391 25.0593C77.1391 23.2895 77.4226 21.7935 77.9897 20.5713C78.5569 19.3491 79.3195 18.4202 80.2777 17.7846C81.236 17.1491 82.3017 16.8313 83.4751 16.8313C84.3942 16.8313 85.152 16.9877 85.7484 17.3006C86.3449 17.6037 86.8044 17.99 87.1271 18.4593C87.4497 18.9286 87.66 19.3931 87.7577 19.8526L88.5204 20.7033L87.5671 21.8473C87.4791 21.5344 87.3177 21.2557 87.0831 21.0113C86.8582 20.7571 86.5502 20.5566 86.1591 20.41C85.7777 20.2633 85.2986 20.19 84.7217 20.19C83.656 20.19 82.8053 20.586 82.1697 21.378C81.5342 22.17 81.2164 23.4215 81.2164 25.1326C81.2164 26.7166 81.5146 27.9291 82.1111 28.77C82.7075 29.6011 83.5289 30.0166 84.5751 30.0166C85.1715 30.0166 85.68 29.9237 86.1004 29.738C86.5306 29.5424 86.868 29.3175 87.1124 29.0633C87.3666 28.7993 87.5182 28.5646 87.5671 28.3593L87.7431 28.6966L87.5671 29.4593C87.4791 29.9091 87.3373 30.3637 87.1417 30.8233C86.9462 31.2828 86.6822 31.7033 86.3497 32.0846C86.0173 32.4562 85.5969 32.7593 85.0884 32.994C84.5897 33.2188 83.9786 33.3313 83.2551 33.3313ZM87.5817 33.1406L87.5671 10.3193H91.6004V33.1406H87.5817ZM100.181 33.4633C98.7631 33.4633 97.6435 32.9842 96.8222 32.026C96.0009 31.058 95.5902 29.6304 95.5902 27.7433V17.1246H99.6529V26.4966C99.6529 27.3864 99.736 28.0904 99.9022 28.6086C100.068 29.1171 100.318 29.4788 100.65 29.694C100.992 29.9091 101.413 30.0166 101.912 30.0166C102.576 30.0166 103.178 29.8113 103.716 29.4006C104.263 28.99 104.659 28.5157 104.904 27.978V17.1246H108.952V33.1406H105.417L105.021 27.098L105.226 28.3153C105.109 29.1953 104.874 30.0264 104.522 30.8086C104.18 31.5908 103.662 32.2313 102.968 32.73C102.273 33.2188 101.344 33.4633 100.181 33.4633ZM113.214 33.1406V11.8153H117.335V31.7033L115.003 29.3126H125.578V33.1406H113.214ZM132.482 33.3166C131.544 33.3166 130.698 33.1406 129.945 32.7886C129.202 32.4366 128.615 31.9282 128.185 31.2633C127.765 30.5984 127.554 29.8113 127.554 28.902C127.554 27.9437 127.74 27.1566 128.112 26.5406C128.483 25.9148 129.001 25.4211 129.666 25.0593C130.331 24.6877 131.099 24.414 131.969 24.238C132.575 24.1108 133.201 24.0082 133.846 23.93C134.501 23.842 135.113 23.7735 135.68 23.7246C136.247 23.6757 136.706 23.6366 137.058 23.6073V23.0646C137.058 22.0184 136.868 21.2606 136.486 20.7913C136.105 20.3122 135.45 20.0726 134.521 20.0726C133.925 20.0726 133.421 20.1508 133.01 20.3073C132.609 20.4637 132.306 20.7473 132.101 21.158C131.896 21.5686 131.793 22.1602 131.793 22.9326H128.009C127.901 21.5344 128.112 20.3855 128.64 19.486C129.177 18.5864 129.965 17.9215 131.001 17.4913C132.047 17.0513 133.274 16.8313 134.682 16.8313C135.513 16.8313 136.305 16.9242 137.058 17.11C137.821 17.286 138.496 17.594 139.082 18.034C139.679 18.4642 140.148 19.0557 140.49 19.8086C140.842 20.5615 141.018 21.5148 141.018 22.6686V33.1406H137.029L137.058 29.474C136.882 30.5495 136.433 31.4588 135.709 32.202C134.985 32.9451 133.91 33.3166 132.482 33.3166ZM133.714 30.486C134.213 30.486 134.697 30.398 135.166 30.222C135.645 30.0362 136.056 29.782 136.398 29.4593C136.75 29.1366 136.97 28.7651 137.058 28.3446V25.6313C136.667 25.69 136.242 25.7584 135.782 25.8366C135.323 25.9148 134.922 25.9931 134.58 26.0713C133.543 26.2864 132.815 26.5846 132.394 26.966C131.984 27.3375 131.778 27.8606 131.778 28.5353C131.778 28.9362 131.857 29.2833 132.013 29.5766C132.179 29.87 132.409 30.0948 132.702 30.2513C133.005 30.4077 133.343 30.486 133.714 30.486ZM153.148 33.3313C152.239 33.3313 151.476 33.1748 150.86 32.862C150.254 32.5491 149.785 32.1628 149.452 31.7033C149.13 31.234 148.92 30.7695 148.822 30.31L148.22 29.1073L149.012 28.4766C149.1 28.7895 149.262 29.0731 149.496 29.3273C149.731 29.5717 150.049 29.7673 150.45 29.914C150.851 30.0508 151.335 30.1193 151.902 30.1193C152.928 30.1193 153.75 29.7233 154.366 28.9313C154.992 28.1295 155.304 26.8535 155.304 25.1033C155.304 23.4802 155.006 22.2628 154.41 21.4513C153.823 20.63 153.026 20.2193 152.019 20.2193C151.423 20.2193 150.909 20.3024 150.479 20.4686C150.049 20.6348 149.712 20.8353 149.467 21.07C149.223 21.2948 149.071 21.5148 149.012 21.73L148.807 21.5686L149.027 20.7913C149.144 19.9895 149.379 19.2904 149.731 18.694C150.083 18.0975 150.567 17.638 151.183 17.3153C151.799 16.9926 152.552 16.8313 153.442 16.8313C154.713 16.8313 155.788 17.1735 156.668 17.858C157.548 18.5326 158.218 19.4811 158.678 20.7033C159.147 21.9157 159.382 23.3286 159.382 24.942C159.382 26.3108 159.22 27.5184 158.898 28.5646C158.575 29.6011 158.125 30.4762 157.548 31.19C156.981 31.894 156.321 32.4268 155.568 32.7886C154.816 33.1504 154.009 33.3313 153.148 33.3313ZM144.994 33.1406V10.3193H149.027V17.9313V29.0046L149.247 29.694L148.924 30.53L148.748 33.1406H144.994Z" fill="white"/>
</svg>
